#!OML:ASF E:\pregnant2\Project 1\Capture day 1\Session 1\pregnant2.ASF
:FULLY-SPECIFIED
:DEGREES
2056
root 3.99655 17.4069 -28.309 37.639 43.0041 722.27
lowerback -21.433 -0.811916 -4.8081
upperback -16.5003 0.447593 -0.414708
thorax -6.27239 1.00031 2.27826
lowerneck -7.2874 -11.4565 -14.4089
upperneck 36.2514 -16.986 9.24723
head 16.3956 -7.90174 3.61405
rclavicle -2.05121e-014 -7.7526e-015
rhumerus -48.5184 -10.8192 -67.1452
rradius 26.748
rwrist 13.5887
rhand -14.3192 -15.9245
rfingers 7.12502
rthumb 11.8213 -45.5708
lclavicle -2.05121e-014 -7.7526e-015
lhumerus -51.3117 -3.35923 73.2818
lradius 31.671
lwrist 2.41362
lhand -16.7201 31.9555
lfingers 7.12502
lthumb 9.50546 61.7211
rfemur -59.4661 12.0173 -2.11795
rtibia 25.7592
rfoot -26.7206 -28.6337
rtoes -3.20433
lfemur -40.1682 -10.7406 -18.6209
ltibia 21.9298
lfoot -15.6133 23.1328
ltoes -11.5851
2057
root 3.99815 17.4097 -28.3121 37.5691 42.0001 722.218
lowerback -21.4383 -0.855879 -4.82493
upperback -16.5203 0.37546 -0.367489
thorax -6.28967 0.96086 2.32852
lowerneck -7.38489 -11.4291 -14.4028
upperneck 36.0777 -16.9304 9.21635
head 16.3114 -7.8894 3.5983
rclavicle 1.04635e-013 6.1822e-014
rhumerus -48.5891 -10.9263 -66.8176
rradius 26.5518
rwrist 13.4052
rhand -14.6047 -15.8256
rfingers 7.12502
rthumb 11.546 -45.4875
lclavicle 1.04635e-013 6.1822e-014
lhumerus -51.3185 -3.18067 72.9741
lradius 31.4927
lwrist 1.90217
lhand -16.5731 31.8335
lfingers 7.12502
lthumb 9.64725 61.5926
rfemur -59.4785 12.1927 -2.17621
rtibia 25.452
rfoot -27.52 -29.6854
rtoes -2.17457
lfemur -39.8578 -10.6937 -18.8328
ltibia 21.6151
lfoot -15.651 23.7815
ltoes -10.9985
2058
root 4.00105 17.4129 -28.3127 37.4767 40.9967 722.149
lowerback -21.4462 -0.901364 -4.82157
upperback -16.5338 0.29813 -0.303808
thorax -6.29708 0.917226 2.38477
lowerneck -7.51449 -11.3877 -14.4003
upperneck 35.925 -16.8473 9.17779
head 16.2408 -7.86498 3.58444
rclavicle -8.91673e-014 -7.94145e-014
rhumerus -48.6264 -10.9788 -66.4888
rradius 26.3775
rwrist 13.2939
rhand -14.7066 -15.7581
rfingers 7.12502
rthumb 11.4477 -45.4256
lclavicle -8.91673e-014 -7.94145e-014
lhumerus -51.3388 -2.95926 72.6938
lradius 31.334
lwrist 1.44907
lhand -16.4875 31.7698
lfingers 7.12502
lthumb 9.72979 61.5251
rfemur -59.4823 12.3636 -2.18492
rtibia 25.1582
rfoot -28.3148 -30.6621
rtoes -1.17977
lfemur -39.5239 -10.614 -19.0464
ltibia 21.302
lfoot -15.7151 24.4007
ltoes -10.4214
2059
root 4.00399 17.4157 -28.3115 37.4027 40.015 722.088
lowerback -21.4404 -0.951378 -4.80078
upperback -16.5559 0.211673 -0.237461
thorax -6.31995 0.868139 2.43247
lowerneck -7.67528 -11.3344 -14.4096
upperneck 35.7968 -16.7422 9.14207
head 16.1891 -7.83057 3.57733
rclavicle 7.20594e-015 -4.1049e-014
rhumerus -48.6592 -11.0148 -66.147
rradius 26.2451
rwrist 13.2769
rhand -14.6596 -15.7561
rfingers 7.12502
rthumb 11.493 -45.421
lclavicle 7.20594e-015 -4.1049e-014
lhumerus -51.3747 -2.74012 72.4523
lradius 31.2106
lwrist 1.08007
lhand -16.473 31.799
lfingers 7.12502
lthumb 9.74381 61.5536
rfemur -59.4947 12.5014 -2.15504
rtibia 24.8905
rfoot -29.0869 -31.6042
rtoes -0.286729
lfemur -39.2064 -10.5101 -19.2705
ltibia 21.0022
lfoot -15.8028 24.9721
ltoes -9.87764
2060
root 4.00705 17.4173 -28.3085 37.3465 39.045 722.038
lowerback -21.4244 -1.00743 -4.76922
upperback -16.581 0.115152 -0.162738
thorax -6.35046 0.813619 2.48164
lowerneck -7.87735 -11.2705 -14.4293
upperneck 35.6894 -16.6132 9.10179
head 16.1548 -7.78582 3.57315
rclavicle -6.07536e-015 -1.20265e-014
rhumerus -48.674 -11.0404 -65.7799
rradius 26.1473
rwrist 13.4145
rhand -14.4643 -15.8143
rfingers 7.12502
rthumb 11.6814 -45.4687
lclavicle -6.07536e-015 -1.20265e-014
lhumerus -51.4278 -2.51574 72.2525
lradius 31.1356
lwrist 0.817003
lhand -16.447 31.8489
lfingers 7.12502
lthumb 9.76891 61.6023
rfemur -59.5046 12.4993 -1.96839
rtibia 24.6597
rfoot -29.7366 -32.4072
rtoes 0.433087
lfemur -38.9031 -10.3836 -19.5084
ltibia 20.7152
lfoot -15.9132 25.5041
ltoes -9.38152
2061
root 4.00949 17.4174 -28.3044 37.331 38.0907 722.011
lowerback -21.3942 -1.07122 -4.73323
upperback -16.6197 0.00743409 -0.0883052
thorax -6.40297 0.753979 2.52609
lowerneck -8.11475 -11.1979 -14.4532
upperneck 35.6004 -16.4672 9.06346
head 16.1365 -7.7323 3.57275
rclavicle 3.94836e-014 7.05686e-015
rhumerus -48.6737 -11.0445 -65.4191
rradius 26.0659
rwrist 13.6028
rhand -14.2375 -15.8802
rfingers 7.12502
rthumb 11.9001 -45.522
lclavicle 3.94836e-014 7.05686e-015
lhumerus -51.4984 -2.29712 72.0778
lradius 31.1035
lwrist 0.65459
lhand -16.4413 31.9297
lfingers 7.12502
lthumb 9.77436 61.6828
rfemur -59.5337 12.3812 -1.67121
rtibia 24.4743
rfoot -30.2708 -33.1418
rtoes 1.03444
lfemur -38.6375 -10.2415 -19.763
ltibia 20.4418
lfoot -16.0499 25.994
ltoes -8.90103
2062
root 4.01068 17.417 -28.2981 37.3487 37.1584 722.008
lowerback -21.3541 -1.13654 -4.72119
upperback -16.6718 -0.0984714 -0.0297258
thorax -6.4767 0.69784 2.56693
lowerneck -8.34673 -11.1261 -14.437
upperneck 35.511 -16.327 9.01606
head 16.1116 -7.67686 3.56157
rclavicle -7.95139e-016 4.35338e-014
rhumerus -48.7047 -11.0673 -65.0636
rradius 25.9934
rwrist 13.8603
rhand -14.1243 -15.8645
rfingers 7.12502
rthumb 12.0093 -45.5
lclavicle -7.95139e-016 4.35338e-014
lhumerus -51.5594 -2.1038 71.9098
lradius 31.0822
lwrist 0.537551
lhand -16.4263 31.9614
lfingers 7.12502
lthumb 9.78886 61.7139
rfemur -59.5869 12.2428 -1.36522
rtibia 24.3337
rfoot -30.7978 -33.8938
rtoes 1.67337
lfemur -38.3953 -10.0766 -20.0374
ltibia 20.1756
lfoot -16.2011 26.4296
ltoes -8.4551
2063
root 4.01102 17.416 -28.2904 37.4063 36.248 722.023
lowerback -21.3215 -1.17283 -4.71654
upperback -16.7587 -0.163458 -0.032765
thorax -6.59131 0.662557 2.55077
lowerneck -8.4665 -11.0676 -14.3328
upperneck 35.4037 -16.238 8.97065
head 16.0493 -7.63511 3.5332
rclavicle 1.17904e-014 -2.5345e-014
rhumerus -48.863 -11.1926 -64.6883
rradius 25.96
rwrist 14.1101
rhand -14.1711 -15.6858
rfingers 7.12502
rthumb 11.9641 -45.3239
lclavicle 1.17904e-014 -2.5345e-014
lhumerus -51.6092 -2.04927 71.7574
lradius 31.0674
lwrist 0.473564
lhand -16.4032 31.9578
lfingers 7.12502
lthumb 9.8112 61.7092
rfemur -59.6854 12.131 -1.11056
rtibia 24.2317
rfoot -31.3834 -34.6979
rtoes 2.44766
lfemur -38.1895 -9.89179 -20.324
ltibia 19.9104
lfoot -16.3577 26.8138
ltoes -8.01809
2064
root 4.01087 17.4152 -28.2808 37.4777 35.3601 722.046
lowerback -21.3034 -1.18759 -4.73302
upperback -16.8611 -0.195263 -0.0750484
thorax -6.72039 0.64537 2.50864
lowerneck -8.48146 -11.0203 -14.1608
upperneck 35.2677 -16.1889 8.92318
head 15.9463 -7.60544 3.49062
rclavicle -7.12395e-014 -4.28381e-014
rhumerus -49.1217 -11.3738 -64.3062
rradius 25.9362
rwrist 14.3461
rhand -14.2385 -15.5027
rfingers 7.12502
rthumb 11.8991 -45.1446
lclavicle -7.12395e-014 -4.28381e-014
lhumerus -51.6449 -2.11384 71.6425
lradius 31.0653
lwrist 0.47299
lhand -16.3781 31.9274
lfingers 7.12502
lthumb 9.83539 61.6776
rfemur -59.8033 12.0747 -0.918164
rtibia 24.1544
rfoot -32.0484 -35.5597
rtoes 3.4656
lfemur -37.99 -9.67714 -20.6254
ltibia 19.6405
lfoot -16.5024 27.1433
ltoes -7.64239
2065
root 4.01031 17.4141 -28.2696 37.5609 34.4929 722.075
lowerback -21.2935 -1.1799 -4.76195
upperback -16.9811 -0.194646 -0.153911
thorax -6.86945 0.645289 2.4382
lowerneck -8.39028 -10.9842 -13.9441
upperneck 35.0928 -16.1806 8.89362
head 15.8032 -7.58944 3.44587
rclavicle -7.92157e-014 5.76476e-015
rhumerus -49.4674 -11.6027 -63.9207
rradius 25.9069
rwrist 14.5222
rhand -14.3547 -15.3036
rfingers 7.12502
rthumb 11.7871 -44.952
lclavicle -7.92157e-014 5.76476e-015
lhumerus -51.6701 -2.28328 71.5592
lradius 31.0709
lwrist 0.501426
lhand -16.3356 31.8561
lfingers 7.12502
lthumb 9.87639 61.6045
rfemur -59.9448 12.0919 -0.813757
rtibia 24.0913
rfoot -32.809 -36.474
rtoes 4.70713
lfemur -37.802 -9.43266 -20.9398
ltibia 19.3723
lfoot -16.6484 27.4198
ltoes -7.28127
2066
root 4.01076 17.4132 -28.2567 37.6255 33.6302 722.081
lowerback -21.3001 -1.14069 -4.77016
upperback -17.1057 -0.154813 -0.256694
thorax -7.01887 0.662099 2.33566
lowerneck -8.21808 -10.9552 -13.7098
upperneck 34.8814 -16.2014 8.89253
head 15.6303 -7.5837 3.40895
rclavicle -8.72665e-014 -9.74045e-015
rhumerus -49.8788 -11.8917 -63.4909
rradius 25.8628
rwrist 14.7613
rhand -14.3858 -15.1461
rfingers 7.12502
rthumb 11.7571 -44.7962
lclavicle -8.72665e-014 -9.74045e-015
lhumerus -51.6901 -2.52333 71.5025
lradius 31.086
lwrist 0.536736
lhand -16.251 31.7071
lfingers 7.12502
lthumb 9.95797 61.4516
rfemur -60.0861 12.1373 -0.705604
rtibia 24.0314
rfoot -33.5673 -37.3494
rtoes 6.03553
lfemur -37.6071 -9.15158 -21.2547
ltibia 19.1125
lfoot -16.7973 27.6649
ltoes -6.96253
